<svg width="1280" height="45" viewBox="0 0 1280 45" fill="none" xmlns="http://www.w3.org/2000/svg">
<g filter="url(#filter0_d_675_357)">
<path d="M-17 12L9.18993 -5.84861C10.2092 -6.54322 11.5497 -6.54322 12.5689 -5.84861L37.0694 10.8486C38.0886 11.5432 39.4291 11.5432 40.4483 10.8486L64.9272 -5.83391C65.9571 -6.53582 67.3138 -6.52779 68.3354 -5.81374L92.1442 10.8282C93.1555 11.5351 94.4965 11.5507 95.524 10.8675L120.715 -5.88186C121.732 -6.55784 123.057 -6.55027 124.066 -5.8627L148.587 10.8486C149.606 11.5432 150.947 11.5432 151.966 10.8486L176.466 -5.84861C177.486 -6.54322 178.826 -6.54322 179.845 -5.84861L204.346 10.8486C205.365 11.5432 206.706 11.5432 207.725 10.8486L232.225 -5.84861C233.244 -6.54322 234.585 -6.54322 235.604 -5.84861L260.105 10.8486C261.124 11.5432 262.464 11.5432 263.484 10.8486L287.984 -5.84861C289.003 -6.54322 290.344 -6.54322 291.363 -5.84861L315.884 10.8627C316.893 11.5503 318.218 11.5578 319.235 10.8819L344.404 -5.85256C345.442 -6.54314 346.8 -6.51902 347.813 -5.79199L370.91 10.7772C371.934 11.5115 373.307 11.5281 374.348 10.8186L398.825 -5.8627C399.834 -6.55027 401.159 -6.55784 402.176 -5.88186L427.533 10.9779C428.476 11.6047 429.691 11.6474 430.676 11.0883L460.9 -6.07662C461.895 -6.64181 463.125 -6.59153 464.071 -5.947L487.486 10.0104C489.11 11.1173 491.701 11.1173 493.325 10.0104L515.328 -4.98507C516.967 -6.10199 519.586 -6.0904 521.205 -4.95907L542.583 9.9841C544.187 11.1055 546.779 11.1281 548.422 10.0351L571.126 -5.05984C572.755 -6.14297 575.317 -6.13192 576.927 -5.03482L599.004 10.0104C600.628 11.1173 603.218 11.1173 604.842 10.0104L626.883 -5.01042C628.507 -6.11729 631.098 -6.11729 632.722 -5.01041L654.762 10.0104C656.387 11.1173 658.977 11.1173 660.601 10.0104L682.642 -5.01042C684.266 -6.11729 686.857 -6.11729 688.481 -5.01041L710.521 10.0104C712.145 11.1173 714.736 11.1173 716.36 10.0104L738.401 -5.01042C740.025 -6.11729 742.615 -6.11729 744.24 -5.01041L766.316 10.0348C767.926 11.1319 770.489 11.143 772.118 10.0598L794.782 -5.00942C796.441 -6.11263 799.061 -6.07785 800.66 -4.9314L821.342 9.90572C822.954 11.0622 825.603 11.086 827.257 9.95873L849.257 -5.03482C850.867 -6.13193 853.43 -6.14298 855.059 -5.05984L878.943 10.8206C880.006 11.5269 881.398 11.4842 882.415 10.7141L904.09 -5.69842C905.117 -6.47613 906.526 -6.5113 907.59 -5.78579L930.769 10.0104C932.393 11.1173 934.983 11.1173 936.608 10.0104L958.611 -4.98507C960.25 -6.10199 962.869 -6.0904 964.487 -4.95907L985.866 9.9841C987.47 11.1055 990.061 11.1281 991.705 10.0351L1014.41 -5.05984C1016.04 -6.14297 1018.6 -6.13192 1020.21 -5.03482L1042.29 10.0104C1043.91 11.1173 1046.5 11.1173 1048.13 10.0104L1070.17 -5.01042C1071.79 -6.11729 1074.38 -6.11729 1076 -5.01041L1098.05 10.0104C1099.67 11.1173 1102.26 11.1173 1103.88 10.0104L1125.92 -5.01042C1127.55 -6.11729 1130.14 -6.11729 1131.76 -5.01041L1153.8 10.0104C1155.43 11.1173 1158.02 11.1173 1159.64 10.0104L1181.68 -5.01042C1183.31 -6.11729 1185.9 -6.11729 1187.52 -5.01041L1209.6 10.0348C1211.21 11.1319 1213.77 11.143 1215.4 10.0598L1238.06 -5.00942C1239.72 -6.11263 1242.34 -6.07785 1243.94 -4.9314L1264.62 9.90572C1266.24 11.0622 1268.89 11.086 1270.54 9.95873L1292.54 -5.03482C1294.15 -6.13193 1296.71 -6.14298 1298.34 -5.05984L1324 12" stroke="#F2D8DB" stroke-width="42"/>
</g>
<defs>
<filter id="filter0_d_675_357" x="-36.9264" y="-31.568" width="1380.65" height="76.1477" filterUnits="userSpaceOnUse" color-interpolation-filters="sRGB">
<feFlood flood-opacity="0" result="BackgroundImageFix"/>
<feColorMatrix in="SourceAlpha" type="matrix" values="0 0 0 0 0 0 0 0 0 0 0 0 0 0 0 0 0 0 127 0" result="hardAlpha"/>
<feOffset dy="4"/>
<feGaussianBlur stdDeviation="4.05"/>
<feComposite in2="hardAlpha" operator="out"/>
<feColorMatrix type="matrix" values="0 0 0 0 0 0 0 0 0 0 0 0 0 0 0 0 0 0 0.08 0"/>
<feBlend mode="normal" in2="BackgroundImageFix" result="effect1_dropShadow_675_357"/>
<feBlend mode="normal" in="SourceGraphic" in2="effect1_dropShadow_675_357" result="shape"/>
</filter>
</defs>
</svg>
