<svg width="1280" height="69" viewBox="0 0 1280 69" fill="none" xmlns="http://www.w3.org/2000/svg">
<g filter="url(#filter0_d_675_322)">
<path d="M-16 40L10.1899 22.1514C11.2092 21.4568 12.5497 21.4568 13.5689 22.1514L38.0694 38.8486C39.0886 39.5432 40.4291 39.5432 41.4483 38.8486L65.9272 22.1661C66.9571 21.4642 68.3138 21.4722 69.3354 22.1863L93.1442 38.8282C94.1555 39.5351 95.4965 39.5507 96.5239 38.8675L121.715 22.1181C122.732 21.4422 124.057 21.4497 125.066 22.1373L149.587 38.8486C150.606 39.5432 151.947 39.5432 152.966 38.8486L177.466 22.1514C178.486 21.4568 179.826 21.4568 180.845 22.1514L205.346 38.8486C206.365 39.5432 207.706 39.5432 208.725 38.8486L233.225 22.1514C234.244 21.4568 235.585 21.4568 236.604 22.1514L261.105 38.8486C262.124 39.5432 263.464 39.5432 264.484 38.8486L288.984 22.1514C290.003 21.4568 291.344 21.4568 292.363 22.1514L316.884 38.8627C317.893 39.5503 319.218 39.5578 320.235 38.8819L345.404 22.1474C346.442 21.4569 347.8 21.481 348.813 22.208L371.91 38.7772C372.934 39.5115 374.307 39.5281 375.348 38.8186L399.825 22.1373C400.834 21.4497 402.159 21.4422 403.176 22.1181L428.533 38.9779C429.476 39.6047 430.691 39.6474 431.676 39.0883L461.9 21.9234C462.895 21.3582 464.125 21.4085 465.071 22.053L488.486 38.0104C490.11 39.1173 492.701 39.1173 494.325 38.0104L516.328 23.0149C517.967 21.898 520.586 21.9096 522.205 23.0409L543.583 37.9841C545.187 39.1055 547.778 39.1281 549.422 38.0351L572.126 22.9402C573.755 21.857 576.317 21.8681 577.927 22.9652L600.004 38.0104C601.628 39.1173 604.218 39.1173 605.842 38.0104L627.883 22.9896C629.507 21.8827 632.098 21.8827 633.722 22.9896L655.763 38.0104C657.387 39.1173 659.977 39.1173 661.601 38.0104L683.642 22.9896C685.266 21.8827 687.857 21.8827 689.481 22.9896L711.521 38.0104C713.145 39.1173 715.736 39.1173 717.36 38.0104L739.401 22.9896C741.025 21.8827 743.615 21.8827 745.24 22.9896L767.316 38.0348C768.926 39.1319 771.489 39.143 773.118 38.0598L795.782 22.9906C797.441 21.8874 800.061 21.9221 801.66 23.0686L822.342 37.9057C823.954 39.0622 826.603 39.086 828.257 37.9587L850.257 22.9652C851.867 21.8681 854.43 21.857 856.059 22.9402L879.943 38.8206C881.006 39.5269 882.398 39.4842 883.415 38.7141L905.09 22.3016C906.117 21.5239 907.526 21.4887 908.59 22.2142L931.769 38.0104C933.393 39.1173 935.983 39.1173 937.607 38.0104L959.611 23.0149C961.25 21.898 963.869 21.9096 965.487 23.0409L986.866 37.9841C988.47 39.1055 991.061 39.1281 992.705 38.0351L1015.41 22.9402C1017.04 21.857 1019.6 21.8681 1021.21 22.9652L1043.29 38.0104C1044.91 39.1173 1047.5 39.1173 1049.13 38.0104L1071.17 22.9896C1072.79 21.8827 1075.38 21.8827 1077 22.9896L1099.05 38.0104C1100.67 39.1173 1103.26 39.1173 1104.88 38.0104L1126.92 22.9896C1128.55 21.8827 1131.14 21.8827 1132.76 22.9896L1154.8 38.0104C1156.43 39.1173 1159.02 39.1173 1160.64 38.0104L1182.68 22.9896C1184.31 21.8827 1186.9 21.8827 1188.52 22.9896L1210.6 38.0348C1212.21 39.1319 1214.77 39.143 1216.4 38.0598L1239.06 22.9906C1240.72 21.8874 1243.34 21.9221 1244.94 23.0686L1265.62 37.9057C1267.24 39.0622 1269.89 39.086 1271.54 37.9587L1293.54 22.9652C1295.15 21.8681 1297.71 21.857 1299.34 22.9402L1325 40" stroke="#2F2343" stroke-width="42"/>
</g>
<defs>
<filter id="filter0_d_675_322" x="-31.8264" y="0.532013" width="1372.45" height="67.9477" filterUnits="userSpaceOnUse" color-interpolation-filters="sRGB">
<feFlood flood-opacity="0" result="BackgroundImageFix"/>
<feColorMatrix in="SourceAlpha" type="matrix" values="0 0 0 0 0 0 0 0 0 0 0 0 0 0 0 0 0 0 127 0" result="hardAlpha"/>
<feOffset dy="4"/>
<feGaussianBlur stdDeviation="2"/>
<feComposite in2="hardAlpha" operator="out"/>
<feColorMatrix type="matrix" values="0 0 0 0 0 0 0 0 0 0 0 0 0 0 0 0 0 0 0.08 0"/>
<feBlend mode="normal" in2="BackgroundImageFix" result="effect1_dropShadow_675_322"/>
<feBlend mode="normal" in="SourceGraphic" in2="effect1_dropShadow_675_322" result="shape"/>
</filter>
</defs>
</svg>
