<svg width="372" height="140" viewBox="0 0 372 140" fill="none" xmlns="http://www.w3.org/2000/svg">
<path d="M24.6908 96.88C21.8108 96.88 19.5908 96.2 18.0308 94.84C16.4708 93.48 15.3908 91.58 14.7908 89.14C14.1908 86.7 13.8908 83.86 13.8908 80.62C13.8908 78.82 13.9908 76.72 14.1908 74.32C14.4308 71.92 14.7108 69.3 15.0308 66.46C15.3908 63.58 15.7708 60.6 16.1708 57.52C16.6108 54.28 17.0908 51.18 17.6108 48.22C18.1708 45.26 18.7308 42.5 19.2908 39.94C19.8508 37.34 20.4508 35 21.0908 32.92C21.7708 30.8 22.4308 29 23.0708 27.52C24.4708 24.56 26.1308 22.24 28.0508 20.56C29.9708 18.88 32.2308 18.04 34.8308 18.04C38.3108 18.04 40.6308 19.2 41.7908 21.52C42.9908 23.84 43.5908 26.98 43.5908 30.94C43.5908 32.06 43.5508 33.24 43.4708 34.48C43.4308 35.72 43.3508 37 43.2308 38.32C43.1108 39.64 42.9708 40.96 42.8108 42.28C42.6908 43.56 42.5708 44.84 42.4508 46.12C42.3308 47.36 42.2308 48.56 42.1508 49.72C42.1108 50.84 42.0908 51.9 42.0908 52.9C42.0908 54.18 42.1708 55.28 42.3308 56.2C42.4908 57.08 42.7908 57.52 43.2308 57.52C43.7108 57.52 44.2308 57.32 44.7908 56.92C45.3908 56.52 45.9908 55.96 46.5908 55.24C47.1108 54.68 47.7508 54 48.5108 53.2C49.2708 52.4 50.1108 51.54 51.0308 50.62C51.9508 49.66 52.8708 48.74 53.7908 47.86C54.7508 46.94 55.6508 46.1 56.4908 45.34C57.3708 44.58 58.1308 43.98 58.7708 43.54C60.0508 42.7 61.4708 42.06 63.0308 41.62C64.6308 41.14 66.1708 40.9 67.6508 40.9C70.3308 40.9 72.5108 41.58 74.1908 42.94C75.8708 44.3 76.7108 46.14 76.7108 48.46C76.7108 50.06 76.2108 51.72 75.2108 53.44C74.2508 55.16 72.7308 56.76 70.6508 58.24C69.0108 59.64 67.4508 60.9 65.9708 62.02C64.5308 63.1 63.2108 64.2 62.0108 65.32C60.8908 66.28 60.3308 67.08 60.3308 67.72C60.3308 68.08 60.4908 68.44 60.8108 68.8C61.1708 69.12 61.6708 69.44 62.3108 69.76C63.1908 70.32 64.3108 71.02 65.6708 71.86C67.0708 72.7 68.5508 73.62 70.1108 74.62C71.7108 75.58 73.2508 76.58 74.7308 77.62C76.2108 78.66 77.4908 79.66 78.5708 80.62C79.5308 81.5 80.2908 82.42 80.8508 83.38C81.4508 84.34 81.7508 85.38 81.7508 86.5C81.7508 88.1 81.2908 89.62 80.3708 91.06C79.4508 92.5 78.2108 93.66 76.6508 94.54C75.0908 95.42 73.3108 95.86 71.3108 95.86C69.4708 95.86 67.7708 95.5 66.2108 94.78C64.6908 94.06 63.2508 93.08 61.8908 91.84C60.4908 90.72 58.9708 89.44 57.3308 88C55.7308 86.56 54.0708 85.02 52.3508 83.38C50.6308 81.7 48.9308 80.1 47.2508 78.58C46.3308 77.66 45.4508 76.88 44.6108 76.24C43.7708 75.6 42.9108 75.28 42.0308 75.28C41.1108 75.28 40.3908 75.56 39.8708 76.12C39.3508 76.68 38.9908 77.38 38.7908 78.22C38.0308 81.02 37.3108 83.44 36.6308 85.48C35.9908 87.48 35.3308 89.18 34.6508 90.58C33.4908 92.78 32.1508 94.38 30.6308 95.38C29.1508 96.38 27.1708 96.88 24.6908 96.88ZM102.371 96.28C98.9314 96.28 96.2514 95.66 94.3314 94.42C92.4514 93.22 91.1514 91.44 90.4314 89.08C89.7114 86.72 89.3514 83.82 89.3514 80.38C89.3514 79.14 89.3714 77.78 89.4114 76.3C89.4914 74.82 89.5714 73.32 89.6514 71.8C89.7714 70.24 89.9114 68.7 90.0714 67.18C90.2714 65.62 90.4714 64.12 90.6714 62.68C90.8714 61.24 91.0914 59.92 91.3314 58.72C91.6114 57.48 91.8914 56.4 92.1714 55.48C93.5714 52 95.6314 49.34 98.3514 47.5C101.111 45.66 104.651 44.74 108.971 44.74C112.971 44.74 115.911 46.18 117.791 49.06C119.671 51.9 120.611 55.78 120.611 60.7C120.611 62.14 120.571 63.74 120.491 65.5C120.411 67.22 120.271 69 120.071 70.84C119.911 72.64 119.691 74.46 119.411 76.3C119.171 78.1 118.871 79.82 118.511 81.46C118.151 83.06 117.751 84.54 117.311 85.9C116.911 87.26 116.451 88.38 115.931 89.26C114.491 91.62 112.651 93.38 110.411 94.54C108.211 95.7 105.531 96.28 102.371 96.28ZM107.471 38.5C102.471 38.5 98.8914 37.68 96.7314 36.04C94.6114 34.4 93.5514 32.52 93.5514 30.4C93.5514 27.64 94.5314 25.3 96.4914 23.38C98.4914 21.42 100.971 19.94 103.931 18.94C106.931 17.94 109.931 17.44 112.931 17.44C115.171 17.44 117.231 17.78 119.111 18.46C120.991 19.14 122.491 20.22 123.611 21.7C124.771 23.18 125.351 25.12 125.351 27.52C125.351 30.2 124.531 32.34 122.891 33.94C121.251 35.54 119.071 36.7 116.351 37.42C113.631 38.14 110.671 38.5 107.471 38.5ZM152.434 96.28C150.474 96.28 148.734 96.02 147.214 95.5C145.734 95.02 144.414 94.32 143.254 93.4C142.094 92.44 141.074 91.32 140.194 90.04C139.194 88.56 138.314 86.88 137.554 85C136.794 83.08 136.154 81.08 135.634 79C135.114 76.88 134.714 74.72 134.434 72.52C134.194 70.28 134.074 68.12 134.074 66.04C134.074 59.32 135.534 53.62 138.454 48.94C141.374 44.22 145.434 40.62 150.634 38.14C155.874 35.66 161.974 34.42 168.934 34.42C172.254 34.42 175.494 34.7 178.654 35.26C181.814 35.78 184.654 36.62 187.174 37.78C189.734 38.9 191.774 40.32 193.294 42.04C194.814 43.76 195.574 45.82 195.574 48.22C195.574 50.5 195.114 52.28 194.194 53.56C193.274 54.84 192.094 55.74 190.654 56.26C189.214 56.74 187.714 56.98 186.154 56.98C183.754 56.98 181.514 56.7 179.434 56.14C177.354 55.58 174.934 55.3 172.174 55.3C169.014 55.3 166.534 56.22 164.734 58.06C162.934 59.9 162.034 62.66 162.034 66.34C162.034 67.74 162.094 69.12 162.214 70.48C162.374 71.84 162.554 73.16 162.754 74.44C162.954 75.68 163.154 76.9 163.354 78.1C163.554 79.26 163.714 80.36 163.834 81.4C163.994 82.44 164.074 83.4 164.074 84.28C164.074 88.32 163.134 91.34 161.254 93.34C159.414 95.3 156.474 96.28 152.434 96.28ZM234.86 96.58C227.34 96.58 220.98 95.54 215.78 93.46C210.58 91.38 206.64 88.12 203.96 83.68C201.28 79.2 199.94 73.38 199.94 66.22C199.94 62.94 200.08 59.7 200.36 56.5C200.68 53.3 201.1 50.2 201.62 47.2C202.18 44.2 202.84 41.36 203.6 38.68C204.4 35.96 205.26 33.48 206.18 31.24C207.14 28.96 208.16 26.96 209.24 25.24C211 22.72 213.06 20.78 215.42 19.42C217.78 18.02 220.38 17.32 223.22 17.32C226.54 17.32 229.1 18.16 230.9 19.84C232.7 21.52 233.6 23.8 233.6 26.68C233.6 27.56 233.56 28.48 233.48 29.44C233.44 30.4 233.38 31.38 233.3 32.38C233.22 33.38 233.12 34.38 233 35.38C232.92 36.34 232.84 37.28 232.76 38.2C232.72 39.08 232.7 39.92 232.7 40.72C232.7 43.08 232.76 44.78 232.88 45.82C233 46.82 233.42 47.32 234.14 47.32C234.86 47.32 235.8 47.12 236.96 46.72C238.12 46.32 239.4 45.84 240.8 45.28C241.88 44.76 243.18 44.34 244.7 44.02C246.26 43.66 247.94 43.48 249.74 43.48C254.9 43.48 259.3 44.54 262.94 46.66C266.62 48.74 269.42 51.66 271.34 55.42C273.3 59.18 274.28 63.58 274.28 68.62C274.28 73.66 273.24 77.96 271.16 81.52C269.08 85.04 266.22 87.92 262.58 90.16C258.94 92.36 254.74 93.98 249.98 95.02C245.26 96.06 240.22 96.58 234.86 96.58ZM237.56 81.46C238.84 81.46 240.14 81.22 241.46 80.74C242.78 80.26 244 79.56 245.12 78.64C246.24 77.72 247.14 76.6 247.82 75.28C248.54 73.92 248.9 72.38 248.9 70.66C248.9 68.3 248.4 66.26 247.4 64.54C246.4 62.82 245.04 61.5 243.32 60.58C241.6 59.62 239.62 59.14 237.38 59.14C235.38 59.14 233.6 59.58 232.04 60.46C230.52 61.3 229.32 62.5 228.44 64.06C227.6 65.62 227.18 67.44 227.18 69.52C227.18 71.96 227.5 74.08 228.14 75.88C228.82 77.68 229.92 79.06 231.44 80.02C232.96 80.98 235 81.46 237.56 81.46ZM297.646 119.5C294.606 119.5 292.146 118.68 290.266 117.04C288.426 115.4 287.506 113.4 287.506 111.04C287.506 108.6 288.246 106.52 289.726 104.8C291.206 103.12 293.346 101.78 296.146 100.78C297.906 99.94 299.786 99 301.786 97.96C303.826 96.92 305.726 95.82 307.486 94.66C309.246 93.5 310.666 92.36 311.746 91.24C312.866 90.08 313.426 88.96 313.426 87.88C313.426 87 312.786 86.06 311.506 85.06C310.226 84.02 307.946 82.84 304.666 81.52C302.066 80.4 299.566 79.1 297.166 77.62C294.806 76.14 292.606 74.52 290.566 72.76C288.566 70.96 286.826 69.04 285.346 67C283.866 64.96 282.706 62.84 281.866 60.64C281.026 58.44 280.606 56.2 280.606 53.92C280.606 51.6 281.146 49.5 282.226 47.62C283.346 45.7 284.866 44.18 286.786 43.06C288.706 41.94 290.906 41.38 293.386 41.38C296.946 41.38 299.946 42.08 302.386 43.48C304.826 44.84 306.966 47.04 308.806 50.08C310.326 53.24 311.706 56.18 312.946 58.9C314.226 61.62 315.586 63.92 317.026 65.8C317.866 66.88 318.766 67.8 319.726 68.56C320.726 69.28 321.586 69.64 322.306 69.64C323.426 69.64 324.466 69.18 325.426 68.26C326.386 67.3 327.126 66.2 327.646 64.96C328.886 62.56 330.106 59.78 331.306 56.62C332.546 53.46 333.806 50.6 335.086 48.04C336.406 45.92 338.046 44.16 340.006 42.76C341.966 41.36 344.366 40.66 347.206 40.66C351.766 40.66 354.946 41.78 356.746 44.02C358.546 46.22 359.446 49.14 359.446 52.78C359.446 54.98 359.046 57.42 358.246 60.1C357.486 62.74 356.446 65.52 355.126 68.44C353.806 71.36 352.326 74.24 350.686 77.08C349.046 79.92 347.326 82.64 345.526 85.24C343.766 87.8 342.066 90.08 340.426 92.08C337.426 95.76 334.246 99.24 330.886 102.52C327.526 105.84 324.026 108.76 320.386 111.28C316.746 113.84 313.006 115.84 309.166 117.28C305.366 118.76 301.526 119.5 297.646 119.5Z" fill="#E3ABB6"/>
<path d="M18.0308 94.84L15.4022 97.8551L15.4022 97.8551L18.0308 94.84ZM14.7908 89.14L10.9065 90.0952H10.9065L14.7908 89.14ZM14.1908 74.32L10.2106 73.922L10.2073 73.9549L10.2046 73.9878L14.1908 74.32ZM15.0308 66.46L11.0617 65.9639L11.0587 65.988L11.0559 66.0121L15.0308 66.46ZM16.1708 57.52L12.2072 56.9817L12.2056 56.9933L12.2041 57.0048L16.1708 57.52ZM17.6108 48.22L13.6805 47.4764L13.6756 47.5021L13.6711 47.5279L17.6108 48.22ZM19.2908 39.94L23.1984 40.7948L23.2011 40.7822L19.2908 39.94ZM21.0908 32.92L17.2819 31.6983L17.2747 31.7209L17.2677 31.7437L21.0908 32.92ZM23.0708 27.52L19.4548 25.8098L19.4261 25.8706L19.3994 25.9324L23.0708 27.52ZM28.0508 20.56L25.4168 17.5497L25.4168 17.5497L28.0508 20.56ZM41.7908 21.52L38.2131 23.3089L38.2253 23.3334L38.2379 23.3577L41.7908 21.52ZM43.4708 34.48L39.4791 34.2225L39.4749 34.2867L39.4729 34.351L43.4708 34.48ZM42.8108 42.28L38.8398 41.7987L38.8333 41.8526L38.8282 41.9066L42.8108 42.28ZM42.4508 46.12L46.4322 46.5053L46.4333 46.4934L42.4508 46.12ZM42.1508 49.72L38.1603 49.4448L38.1557 49.511L38.1533 49.5772L42.1508 49.72ZM42.3308 56.2L38.3899 56.8854L38.3926 56.9005L38.3953 56.9155L42.3308 56.2ZM44.7908 56.92L42.572 53.5918L42.5183 53.6276L42.4658 53.6651L44.7908 56.92ZM46.5908 55.24L43.6596 52.5182L43.5866 52.5968L43.5179 52.6793L46.5908 55.24ZM48.5108 53.2L51.4108 55.955L51.4108 55.955L48.5108 53.2ZM51.0308 50.62L53.8592 53.4484L53.8893 53.4183L53.9187 53.3876L51.0308 50.62ZM53.7908 47.86L56.5557 50.7506L56.5584 50.7479L53.7908 47.86ZM56.4908 45.34L53.8763 42.3127L53.8414 42.3429L53.8071 42.3739L56.4908 45.34ZM58.7708 43.54L56.5762 40.1958L56.5402 40.2194L56.5047 40.2438L58.7708 43.54ZM63.0308 41.62L64.1166 45.4698L64.1485 45.4608L64.1802 45.4513L63.0308 41.62ZM74.1908 42.94L71.674 46.049L71.674 46.049L74.1908 42.94ZM75.2108 53.44L71.7528 51.4295L71.7351 51.4599L71.718 51.4905L75.2108 53.44ZM70.6508 58.24L68.3318 54.9808L68.188 55.0832L68.0537 55.1977L70.6508 58.24ZM65.9708 62.02L68.3708 65.22L68.3777 65.2148L68.3846 65.2096L65.9708 62.02ZM62.0108 65.32L64.6139 68.357L64.6782 68.302L64.7401 68.2442L62.0108 65.32ZM60.8108 68.8L57.8211 71.4574L57.9775 71.6333L58.1533 71.7896L60.8108 68.8ZM62.3108 69.76L64.4583 66.3854L64.2842 66.2746L64.0996 66.1823L62.3108 69.76ZM65.6708 71.86L63.5688 75.2632L63.5907 75.2767L63.6128 75.29L65.6708 71.86ZM70.1108 74.62L67.9521 77.9875L68.002 78.0195L68.0528 78.05L70.1108 74.62ZM74.7308 77.62L77.0306 74.3472L77.0306 74.3472L74.7308 77.62ZM78.5708 80.62L81.2737 77.6714L81.2511 77.6507L81.2282 77.6304L78.5708 80.62ZM80.8508 83.38L77.3957 85.3955L77.4264 85.4482L77.4588 85.5L80.8508 83.38ZM80.3708 91.06L77 88.9064L80.3708 91.06ZM76.6508 94.54L74.6855 91.0561L74.6855 91.0561L76.6508 94.54ZM66.2108 94.78L64.4984 98.395L64.5165 98.4035L64.5345 98.4118L66.2108 94.78ZM61.8908 91.84L64.5858 88.8842L64.4904 88.7972L64.3896 88.7165L61.8908 91.84ZM57.3308 88L54.6549 90.9732L54.6732 90.9896L54.6916 91.0058L57.3308 88ZM52.3508 83.38L49.5558 86.2415L49.5731 86.2583L49.5905 86.2749L52.3508 83.38ZM47.2508 78.58L44.4224 81.4084L44.493 81.4791L44.5671 81.5461L47.2508 78.58ZM44.6108 76.24L47.035 73.0583H47.035L44.6108 76.24ZM39.8708 76.12L36.9396 73.3982L36.9396 73.3982L39.8708 76.12ZM38.7908 78.22L42.6511 79.2678L42.6675 79.2074L42.682 79.1465L38.7908 78.22ZM36.6308 85.48L32.836 84.2151L32.8284 84.2379L32.8211 84.2609L36.6308 85.48ZM34.6508 90.58L38.1891 92.4456L38.2199 92.3871L38.2488 92.3276L34.6508 90.58ZM30.6308 95.38L28.4323 92.0383L28.4118 92.0519L28.3914 92.0656L30.6308 95.38ZM24.6908 92.88C22.3999 92.88 21.2495 92.3394 20.6593 91.8249L15.4022 97.8551C17.9321 100.061 21.2217 100.88 24.6908 100.88V92.88ZM20.6593 91.8249C19.8426 91.1129 19.1213 89.9994 18.6751 88.1848L10.9065 90.0952C11.6603 93.1606 13.099 95.8471 15.4022 97.8551L20.6593 91.8249ZM18.6751 88.1848C18.1703 86.1323 17.8908 83.6256 17.8908 80.62H9.89078C9.89078 84.0944 10.2112 87.2677 10.9065 90.0952L18.6751 88.1848ZM17.8908 80.62C17.8908 78.9606 17.9833 76.976 18.177 74.6522L10.2046 73.9878C9.99825 76.464 9.89078 78.6794 9.89078 80.62H17.8908ZM18.1709 74.718C18.409 72.3373 18.6872 69.7342 19.0056 66.9079L11.0559 66.0121C10.7344 68.8658 10.4526 71.5027 10.2106 73.922L18.1709 74.718ZM18.9999 66.9561C19.359 64.0829 19.7382 61.1093 20.1375 58.0352L12.2041 57.0048C11.8033 60.0907 11.4225 63.0771 11.0617 65.9639L18.9999 66.9561ZM20.1344 58.0583C20.568 54.8653 21.0402 51.8168 21.5505 48.9121L13.6711 47.5279C13.1414 50.5432 12.6535 53.6947 12.2072 56.9817L20.1344 58.0583ZM21.5411 48.9636C22.095 46.0354 22.6476 43.3129 23.1984 40.7948L15.3832 39.0852C14.814 41.6871 14.2465 44.4846 13.6805 47.4764L21.5411 48.9636ZM23.2011 40.7822C23.742 38.2711 24.3142 36.0453 24.9139 34.0963L17.2677 31.7437C16.5874 33.9547 15.9596 36.4089 15.3805 39.0978L23.2011 40.7822ZM24.8996 34.1417C25.5536 32.1029 26.1692 30.4327 26.7422 29.1076L19.3994 25.9324C18.6924 27.5673 17.988 29.4971 17.2819 31.6983L24.8996 34.1417ZM26.6867 29.2302C27.9159 26.6314 29.2771 24.8021 30.6848 23.5703L25.4168 17.5497C22.9845 19.6779 21.0256 22.4886 19.4548 25.8098L26.6867 29.2302ZM30.6848 23.5703C31.8605 22.5416 33.1793 22.04 34.8308 22.04V14.04C31.2823 14.04 28.0811 15.2184 25.4168 17.5497L30.6848 23.5703ZM34.8308 22.04C37.3997 22.04 37.9641 22.8109 38.2131 23.3089L45.3685 19.7311C43.2974 15.5891 39.2218 14.04 34.8308 14.04V22.04ZM38.2379 23.3577C39.0313 24.8916 39.5908 27.3179 39.5908 30.94H47.5908C47.5908 26.6421 46.9503 22.7884 45.3437 19.6823L38.2379 23.3577ZM39.5908 30.94C39.5908 31.9654 39.5541 33.0591 39.4791 34.2225L47.4625 34.7375C47.5474 33.4209 47.5908 32.1546 47.5908 30.94H39.5908ZM39.4729 34.351C39.4355 35.5081 39.3606 36.7102 39.2472 37.9579L47.2144 38.6821C47.3409 37.2898 47.426 35.9319 47.4687 34.609L39.4729 34.351ZM39.2472 37.9579C39.1308 39.2379 38.9951 40.5182 38.8398 41.7987L46.7817 42.7613C46.9465 41.4018 47.0907 40.0421 47.2144 38.6821L39.2472 37.9579ZM38.8282 41.9066C38.7082 43.1866 38.5882 44.4666 38.4682 45.7466L46.4333 46.4934C46.5533 45.2134 46.6733 43.9334 46.7933 42.6534L38.8282 41.9066ZM38.4694 45.7347C38.3461 47.0088 38.243 48.2456 38.1603 49.4448L46.1413 49.9952C46.2186 48.8744 46.3155 47.7112 46.4322 46.5053L38.4694 45.7347ZM38.1533 49.5772C38.1118 50.7392 38.0908 51.8471 38.0908 52.9H46.0908C46.0908 51.9529 46.1097 50.9408 46.1482 49.8628L38.1533 49.5772ZM38.0908 52.9C38.0908 54.3318 38.1792 55.6734 38.3899 56.8854L46.2716 55.5146C46.1624 54.8866 46.0908 54.0282 46.0908 52.9H38.0908ZM38.3953 56.9155C38.5164 57.5816 38.7611 58.549 39.3709 59.4433C40.0872 60.4939 41.3995 61.52 43.2308 61.52V53.52C43.8236 53.52 44.4311 53.6781 44.9713 53.9994C45.4848 54.3047 45.803 54.676 45.9807 54.9367C46.2905 55.391 46.3052 55.6984 46.2663 55.4845L38.3953 56.9155ZM43.2308 61.52C44.8354 61.52 46.1603 60.8574 47.1157 60.1749L42.4658 53.6651C42.3991 53.7127 42.4259 53.6824 42.5449 53.6366C42.6706 53.5883 42.9077 53.52 43.2308 53.52V61.52ZM47.0096 60.2482C48.0089 59.582 48.8868 58.733 49.6637 57.8007L43.5179 52.6793C43.0948 53.187 42.7726 53.458 42.572 53.5918L47.0096 60.2482ZM49.522 57.9618C50.0282 57.4166 50.6571 56.7484 51.4108 55.955L45.6108 50.445C44.8445 51.2516 44.1934 51.9434 43.6596 52.5182L49.522 57.9618ZM51.4108 55.955C52.1435 55.1837 52.9592 54.3484 53.8592 53.4484L48.2024 47.7916C47.2623 48.7316 46.398 49.6163 45.6108 50.445L51.4108 55.955ZM53.9187 53.3876C54.8004 52.4676 55.6794 51.5888 56.5557 50.7506L51.0259 44.9694C50.0622 45.8912 49.1012 46.8523 48.1428 47.8524L53.9187 53.3876ZM56.5584 50.7479C57.4954 49.85 58.3672 49.0365 59.1744 48.3061L53.8071 42.3739C52.9344 43.1635 52.0062 44.03 51.0232 44.972L56.5584 50.7479ZM59.1053 48.3673C59.9229 47.6611 60.5613 47.1631 61.0369 46.8362L56.5047 40.2438C55.7002 40.7969 54.8187 41.4989 53.8763 42.3127L59.1053 48.3673ZM60.9654 46.8842C61.8843 46.2812 62.9267 45.8054 64.1166 45.4698L61.9449 37.7702C60.0148 38.3146 58.2173 39.1188 56.5762 40.1958L60.9654 46.8842ZM64.1802 45.4513C65.4545 45.069 66.6065 44.9 67.6508 44.9V36.9C65.7351 36.9 63.8071 37.211 61.8814 37.7887L64.1802 45.4513ZM67.6508 44.9C69.6404 44.9 70.8638 45.3931 71.674 46.049L76.7076 39.831C74.1578 37.7669 71.0212 36.9 67.6508 36.9V44.9ZM71.674 46.049C72.3397 46.5879 72.7108 47.2456 72.7108 48.46H80.7108C80.7108 45.0344 79.4019 42.0121 76.7076 39.831L71.674 46.049ZM72.7108 48.46C72.7108 49.201 72.4834 50.1729 71.7528 51.4295L78.6688 55.4505C79.9382 53.2671 80.7108 50.919 80.7108 48.46H72.7108ZM71.718 51.4905C71.1196 52.5626 70.0659 53.7469 68.3318 54.9808L72.9698 61.4992C75.3957 59.7731 77.3819 57.7574 78.7036 55.3895L71.718 51.4905ZM68.0537 55.1977C66.4641 56.5547 64.9655 57.7645 63.557 58.8304L68.3846 65.2096C69.9361 64.0355 71.5575 62.7253 73.2478 61.2823L68.0537 55.1977ZM63.5708 58.82C62.027 59.9778 60.5957 61.1692 59.2815 62.3958L64.7401 68.2442C65.8259 67.2308 67.0346 66.2222 68.3708 65.22L63.5708 58.82ZM59.4076 62.283C58.7083 62.8824 58.0175 63.5695 57.4739 64.3461C56.955 65.0873 56.3308 66.2512 56.3308 67.72H64.3308C64.3308 68.147 64.2373 68.4707 64.1638 68.6598C64.1267 68.7553 64.0915 68.8247 64.068 68.8672C64.0444 68.9099 64.0289 68.9322 64.0277 68.9338C64.0264 68.9357 64.0358 68.9222 64.0599 68.8932C64.0839 68.8645 64.1195 68.824 64.1692 68.7719C64.2702 68.6661 64.4148 68.5277 64.6139 68.357L59.4076 62.283ZM56.3308 67.72C56.3308 69.3501 57.0733 70.6162 57.8211 71.4574L63.8004 66.1426C63.9082 66.2638 64.3308 66.8099 64.3308 67.72H56.3308ZM58.1533 71.7896C58.8695 72.4262 59.7043 72.9289 60.5219 73.3377L64.0996 66.1823C63.8811 66.073 63.7222 65.9814 63.612 65.9109C63.4999 65.8391 63.4603 65.8033 63.4682 65.8104L58.1533 71.7896ZM60.1633 73.1346C61.0641 73.7079 62.2007 74.4182 63.5688 75.2632L67.7728 68.4568C66.4209 67.6218 65.3175 66.9321 64.4583 66.3854L60.1633 73.1346ZM63.6128 75.29C64.9748 76.1072 66.421 77.0061 67.9521 77.9875L72.2695 71.2525C70.6805 70.2339 69.1668 69.2928 67.7288 68.43L63.6128 75.29ZM68.0528 78.05C69.5729 78.962 71.0321 79.9098 72.431 80.8928L77.0306 74.3472C75.4695 73.2502 73.8486 72.198 72.1688 71.19L68.0528 78.05ZM72.431 80.8928C73.816 81.866 74.9711 82.7721 75.9133 83.6096L81.2282 77.6304C80.0104 76.5479 78.6056 75.454 77.0306 74.3472L72.431 80.8928ZM75.8679 83.5686C76.5812 84.2225 77.0694 84.8362 77.3957 85.3955L84.3059 81.3645C83.5122 80.0038 82.4803 78.7775 81.2737 77.6714L75.8679 83.5686ZM77.4588 85.5C77.666 85.8315 77.7508 86.1382 77.7508 86.5H85.7508C85.7508 84.6218 85.2356 82.8485 84.2428 81.26L77.4588 85.5ZM77.7508 86.5C77.7508 87.2843 77.5383 88.0639 77 88.9064L83.7416 93.2136C85.0432 91.1761 85.7508 88.9157 85.7508 86.5H77.7508ZM77 88.9064C76.4497 89.7678 75.7036 90.4818 74.6855 91.0561L78.6161 98.0239C80.718 96.8382 82.4519 95.2322 83.7416 93.2136L77 88.9064ZM74.6855 91.0561C73.7928 91.5596 72.7042 91.86 71.3108 91.86V99.86C73.9174 99.86 76.3887 99.2804 78.6161 98.0239L74.6855 91.0561ZM71.3108 91.86C70.0078 91.86 68.8848 91.6087 67.887 91.1482L64.5345 98.4118C66.6567 99.3913 68.9338 99.86 71.3108 99.86V91.86ZM67.9231 91.165C66.7936 90.63 65.6802 89.882 64.5858 88.8842L59.1958 94.7958C60.8214 96.278 62.588 97.49 64.4984 98.395L67.9231 91.165ZM64.3896 88.7165C63.0462 87.6418 61.5735 86.4022 59.97 84.9942L54.6916 91.0058C56.368 92.4778 57.9354 93.7982 59.392 94.9635L64.3896 88.7165ZM60.0066 85.0268C58.4379 83.615 56.8061 82.1013 55.1111 80.485L49.5905 86.2749C51.3354 87.9387 53.0237 89.505 54.6549 90.9732L60.0066 85.0268ZM55.1457 80.5185C53.3915 78.8051 51.6544 77.17 49.9344 75.6139L44.5671 81.5461C46.2072 83.03 47.8701 84.5949 49.5558 86.2415L55.1457 80.5185ZM50.0792 75.7516C49.0603 74.7327 48.0457 73.8283 47.035 73.0583L42.1866 79.4217C42.8559 79.9317 43.6012 80.5873 44.4224 81.4084L50.0792 75.7516ZM47.035 73.0583C45.6419 71.9969 43.9515 71.28 42.0308 71.28V79.28C42.0068 79.28 41.9834 79.2777 41.9635 79.274C41.9439 79.2704 41.9357 79.267 41.9408 79.2689C41.9509 79.2726 42.0337 79.3052 42.1866 79.4217L47.035 73.0583ZM42.0308 71.28C40.2439 71.28 38.3687 71.8592 36.9396 73.3982L42.802 78.8418C42.6459 79.0098 42.4477 79.1414 42.2506 79.218C42.0693 79.2885 41.9742 79.28 42.0308 79.28V71.28ZM36.9396 73.3982C35.8917 74.5267 35.2382 75.871 34.8996 77.2935L42.682 79.1465C42.7145 79.0098 42.7487 78.9318 42.7679 78.8944C42.786 78.8592 42.7978 78.8463 42.802 78.8418L36.9396 73.3982ZM34.9305 77.1722C34.1839 79.9225 33.4856 82.2666 32.836 84.2151L40.4255 86.7449C41.136 84.6134 41.8776 82.1175 42.6511 79.2678L34.9305 77.1722ZM32.8211 84.2609C32.2204 86.1379 31.6268 87.6505 31.0527 88.8324L38.2488 92.3276C39.0348 90.7095 39.7611 88.8221 40.4405 86.6991L32.8211 84.2609ZM31.1125 88.7144C30.1571 90.5264 29.2191 91.5207 28.4323 92.0383L32.8292 98.7217C35.0824 97.2393 36.8245 95.0336 38.1891 92.4456L31.1125 88.7144ZM28.3914 92.0656C27.7839 92.4761 26.6726 92.88 24.6908 92.88V100.88C27.669 100.88 30.5177 100.284 32.8702 98.6944L28.3914 92.0656ZM94.3314 94.42L96.5015 91.0598L96.4925 91.0541L96.4836 91.0483L94.3314 94.42ZM89.4114 76.3L85.4172 76.0841L85.4143 76.138L85.4129 76.1919L89.4114 76.3ZM89.6514 71.8L85.6632 71.4932L85.6595 71.5415L85.6569 71.5898L89.6514 71.8ZM90.0714 67.18L86.1039 66.6713L86.0981 66.7162L86.0934 66.7613L90.0714 67.18ZM90.6714 62.68L94.6334 63.2303L90.6714 62.68ZM91.3314 58.72L87.4296 57.839L87.4188 57.8871L87.4091 57.9355L91.3314 58.72ZM92.1714 55.48L88.4604 53.9871L88.3954 54.1487L88.3447 54.3154L92.1714 55.48ZM98.3514 47.5L96.1326 44.1718L96.1214 44.1793L96.1102 44.1869L98.3514 47.5ZM117.791 49.06L114.442 51.2465L114.449 51.2572L114.456 51.2679L117.791 49.06ZM120.491 65.5L124.487 65.6858L124.487 65.6816L120.491 65.5ZM120.071 70.84L116.095 70.4078L116.091 70.4468L116.087 70.4858L120.071 70.84ZM119.411 76.3L115.457 75.6982L115.451 75.7347L115.446 75.7713L119.411 76.3ZM118.511 81.46L122.414 82.3381L122.416 82.3278L122.418 82.3176L118.511 81.46ZM117.311 85.9L113.506 84.6687L113.489 84.7198L113.474 84.7713L117.311 85.9ZM115.931 89.26L119.346 91.3435L119.361 91.3193L119.375 91.2949L115.931 89.26ZM110.411 94.54L108.572 90.988L108.559 90.9948L108.546 91.0017L110.411 94.54ZM96.7314 36.04L94.2839 39.2038L94.2982 39.2149L94.3126 39.2258L96.7314 36.04ZM96.4914 23.38L99.2905 26.2374L99.2911 26.2368L96.4914 23.38ZM103.931 18.94L102.666 15.1453L102.659 15.1478L102.651 15.1504L103.931 18.94ZM123.611 21.7L120.422 24.1138L120.442 24.1408L120.463 24.1675L123.611 21.7ZM122.891 33.94L120.098 31.0769L120.098 31.0769L122.891 33.94ZM116.351 37.42L117.375 41.2868V41.2868L116.351 37.42ZM102.371 92.28C99.3381 92.28 97.5255 91.7212 96.5015 91.0598L92.1613 97.7802C94.9773 99.5988 98.5247 100.28 102.371 100.28V92.28ZM96.4836 91.0483C95.4929 90.416 94.7311 89.4659 94.2573 87.9128L86.6055 90.2472C87.5717 93.4141 89.4099 96.024 92.1793 97.7917L96.4836 91.0483ZM94.2573 87.9128C93.6882 86.0473 93.3514 83.5677 93.3514 80.38H85.3514C85.3514 84.0723 85.7346 87.3927 86.6055 90.2472L94.2573 87.9128ZM93.3514 80.38C93.3514 79.1821 93.3707 77.8587 93.4099 76.4081L85.4129 76.1919C85.3721 77.7013 85.3514 79.0979 85.3514 80.38H93.3514ZM93.4056 76.5159C93.4857 75.034 93.5658 73.5321 93.6459 72.0102L85.6569 71.5898C85.577 73.1079 85.4971 74.606 85.4172 76.0841L93.4056 76.5159ZM93.6396 72.1068C93.7568 70.5833 93.8934 69.0806 94.0494 67.5987L86.0934 66.7613C85.9294 68.3194 85.786 69.8967 85.6632 71.4932L93.6396 72.1068ZM94.0389 67.6887C94.2373 66.1414 94.4354 64.6553 94.6334 63.2303L86.7094 62.1297C86.5074 63.5847 86.3055 65.0986 86.1039 66.6713L94.0389 67.6887ZM94.6334 63.2303C94.8244 61.8546 95.0318 60.614 95.2537 59.5045L87.4091 57.9355C87.151 59.226 86.9184 60.6254 86.7094 62.1297L94.6334 63.2303ZM95.2332 59.601C95.498 58.4281 95.7539 57.4469 95.9981 56.6446L88.3447 54.3154C88.0289 55.3531 87.7248 56.5319 87.4296 57.839L95.2332 59.601ZM95.8824 56.9729C97.0285 54.124 98.6237 52.1451 100.593 50.8131L96.1102 44.1869C92.6391 46.5349 90.1143 49.876 88.4604 53.9871L95.8824 56.9729ZM100.57 50.8282C102.501 49.541 105.205 48.74 108.971 48.74V40.74C104.098 40.74 99.7218 41.779 96.1326 44.1718L100.57 50.8282ZM108.971 48.74C111.877 48.74 113.431 49.6972 114.442 51.2465L121.141 46.8735C118.392 42.6628 114.066 40.74 108.971 40.74V48.74ZM114.456 51.2679C115.75 53.2224 116.611 56.2332 116.611 60.7H124.611C124.611 55.3268 123.593 50.5776 121.127 46.8521L114.456 51.2679ZM116.611 60.7C116.611 62.0679 116.573 63.6061 116.496 65.3184L124.487 65.6816C124.569 63.8739 124.611 62.2121 124.611 60.7H116.611ZM116.496 65.3142C116.42 66.946 116.287 68.6437 116.095 70.4078L124.048 71.2722C124.256 69.3563 124.403 67.494 124.487 65.6858L116.496 65.3142ZM116.087 70.4858C115.935 72.2006 115.725 73.938 115.457 75.6982L123.366 76.9018C123.658 74.982 123.888 73.0794 124.056 71.1942L116.087 70.4858ZM115.446 75.7713C115.22 77.4698 114.939 79.0795 114.604 80.6024L122.418 82.3176C122.804 80.5605 123.123 78.7302 123.376 76.8287L115.446 75.7713ZM114.609 80.5819C114.272 82.0797 113.903 83.4403 113.506 84.6687L121.117 87.1313C121.6 85.6397 122.031 84.0403 122.414 82.3381L114.609 80.5819ZM113.474 84.7713C113.134 85.9266 112.789 86.7155 112.488 87.2251L119.375 91.2949C120.114 90.0445 120.689 88.5934 121.149 87.0287L113.474 84.7713ZM112.517 87.1765C111.42 88.9741 110.101 90.1962 108.572 90.988L112.251 98.092C115.202 96.5638 117.563 94.2659 119.346 91.3435L112.517 87.1765ZM108.546 91.0017C107.056 91.7874 105.053 92.28 102.371 92.28V100.28C106.01 100.28 109.367 99.6126 112.277 98.0783L108.546 91.0017ZM107.471 34.5C102.703 34.5 100.235 33.6779 99.1502 32.8542L94.3126 39.2258C97.5478 41.6821 102.24 42.5 107.471 42.5V34.5ZM99.1789 32.8762C97.7538 31.7737 97.5514 30.9621 97.5514 30.4H89.5514C89.5514 34.0779 91.469 37.0263 94.2839 39.2038L99.1789 32.8762ZM97.5514 30.4C97.5514 28.708 98.1037 27.4 99.2905 26.2374L93.6923 20.5226C90.9591 23.2 89.5514 26.572 89.5514 30.4H97.5514ZM99.2911 26.2368C100.814 24.7447 102.755 23.5594 105.212 22.7296L102.651 15.1504C99.1875 16.3206 96.1691 18.0953 93.6917 20.5231L99.2911 26.2368ZM105.196 22.7347C107.811 21.8633 110.384 21.44 112.931 21.44V13.44C109.479 13.44 106.052 14.0167 102.666 15.1453L105.196 22.7347ZM112.931 21.44C114.763 21.44 116.356 21.7171 117.751 22.2215L120.472 14.6985C118.106 13.8429 115.58 13.44 112.931 13.44V21.44ZM117.751 22.2215C118.962 22.6597 119.805 23.2982 120.422 24.1138L126.801 19.2862C125.178 17.1417 123.02 15.6203 120.472 14.6985L117.751 22.2215ZM120.463 24.1675C120.934 24.7688 121.351 25.7641 121.351 27.52H129.351C129.351 24.4759 128.608 21.5912 126.76 19.2325L120.463 24.1675ZM121.351 27.52C121.351 29.3201 120.835 30.3576 120.098 31.0769L125.685 36.8031C128.227 34.3224 129.351 31.0799 129.351 27.52H121.351ZM120.098 31.0769C119.052 32.0971 117.532 32.9697 115.328 33.5532L117.375 41.2868C120.611 40.4303 123.45 38.9829 125.685 36.8031L120.098 31.0769ZM115.328 33.5532C112.984 34.1736 110.372 34.5 107.471 34.5V42.5C110.971 42.5 114.279 42.1064 117.375 41.2868L115.328 33.5532ZM147.214 95.5L148.509 91.7153L148.479 91.705L148.448 91.6951L147.214 95.5ZM143.254 93.4L140.704 96.4816L140.736 96.5081L140.769 96.534L143.254 93.4ZM140.194 90.04L136.88 92.2794L136.889 92.2928L136.898 92.3061L140.194 90.04ZM137.554 85L133.835 86.4722L133.84 86.4857L133.846 86.4992L137.554 85ZM135.634 79L131.749 79.9529L131.751 79.9615L131.754 79.9701L135.634 79ZM134.434 72.52L130.457 72.9461L130.461 72.9856L130.466 73.025L134.434 72.52ZM138.454 48.94L141.848 51.0574L141.852 51.0509L141.856 51.0444L138.454 48.94ZM150.634 38.14L148.923 34.5245L148.912 34.5296L150.634 38.14ZM178.654 35.26L177.956 39.1986L177.98 39.2029L178.005 39.2069L178.654 35.26ZM187.174 37.78L185.502 41.4135L185.536 41.4294L185.571 41.4446L187.174 37.78ZM193.294 42.04L196.292 39.3912V39.3912L193.294 42.04ZM194.194 53.56L197.442 55.8945L194.194 53.56ZM190.654 56.26L191.919 60.0547L191.966 60.0391L192.013 60.0222L190.654 56.26ZM162.214 70.48L158.23 70.8316L158.235 70.8896L158.242 70.9474L162.214 70.48ZM162.754 74.44L158.802 75.0575L158.804 75.0672L158.805 75.0769L162.754 74.44ZM163.354 78.1L159.409 78.7576L159.41 78.7686L159.412 78.7796L163.354 78.1ZM163.834 81.4L159.861 81.8585L159.869 81.9336L159.881 82.0082L163.834 81.4ZM161.254 93.34L158.34 90.6004L158.338 90.6023L161.254 93.34ZM152.434 92.28C150.821 92.28 149.532 92.0653 148.509 91.7153L145.919 99.2847C147.936 99.9747 150.127 100.28 152.434 100.28V92.28ZM148.448 91.6951C147.399 91.3547 146.507 90.8746 145.74 90.266L140.769 96.534C142.321 97.7654 144.07 98.6853 145.98 99.3049L148.448 91.6951ZM145.804 90.3184C144.939 89.6018 144.167 88.7586 143.49 87.7739L136.898 92.3061C137.981 93.8814 139.25 95.2782 140.704 96.4816L145.804 90.3184ZM143.509 87.8006C142.685 86.5816 141.931 85.1552 141.263 83.5008L133.846 86.4992C134.697 88.6048 135.704 90.5384 136.88 92.2794L143.509 87.8006ZM141.273 83.5278C140.581 81.7775 139.994 79.9456 139.515 78.0299L131.754 79.9701C132.315 82.2144 133.008 84.3825 133.835 86.4722L141.273 83.5278ZM139.519 78.0471C139.036 76.077 138.663 74.0666 138.402 72.015L130.466 73.025C130.765 75.3734 131.193 77.683 131.749 79.9529L139.519 78.0471ZM138.411 72.0939C138.185 69.9839 138.074 67.9665 138.074 66.04H130.074C130.074 68.2735 130.203 70.5761 130.457 72.9461L138.411 72.0939ZM138.074 66.04C138.074 59.9047 139.403 54.9762 141.848 51.0574L135.061 46.8226C131.666 52.2638 130.074 58.7353 130.074 66.04H138.074ZM141.856 51.0444C144.356 47.0029 147.821 43.9132 152.356 41.7504L148.912 34.5296C143.047 37.3268 138.392 41.4371 135.053 46.8356L141.856 51.0444ZM152.345 41.7555C156.954 39.5744 162.449 38.42 168.934 38.42V30.42C161.499 30.42 154.795 31.7456 148.923 34.5245L152.345 41.7555ZM168.934 38.42C172.028 38.42 175.034 38.6808 177.956 39.1986L179.352 31.3214C175.954 30.7192 172.48 30.42 168.934 30.42V38.42ZM178.005 39.2069C180.864 39.6775 183.353 40.4243 185.502 41.4135L188.847 34.1465C185.956 32.8157 182.764 31.8825 179.304 31.3131L178.005 39.2069ZM185.571 41.4446C187.712 42.3811 189.237 43.489 190.297 44.6888L196.292 39.3912C194.312 37.151 191.757 35.4189 188.777 34.1154L185.571 41.4446ZM190.297 44.6888C191.139 45.6421 191.574 46.747 191.574 48.22H199.574C199.574 44.893 198.489 41.8779 196.292 39.3912L190.297 44.6888ZM191.574 48.22C191.574 50.021 191.203 50.8683 190.946 51.2255L197.442 55.8945C199.026 53.6917 199.574 50.979 199.574 48.22H191.574ZM190.946 51.2255C190.483 51.8704 189.953 52.2606 189.296 52.4978L192.013 60.0222C194.236 59.2194 196.066 57.8096 197.442 55.8945L190.946 51.2255ZM189.389 52.4653C188.368 52.8055 187.296 52.98 186.154 52.98V60.98C188.132 60.98 190.06 60.6745 191.919 60.0547L189.389 52.4653ZM186.154 52.98C184.066 52.98 182.179 52.7365 180.474 52.2775L178.394 60.0025C180.85 60.6635 183.443 60.98 186.154 60.98V52.98ZM180.474 52.2775C177.976 51.6048 175.192 51.3 172.174 51.3V59.3C174.676 59.3 176.733 59.5552 178.394 60.0025L180.474 52.2775ZM172.174 51.3C168.199 51.3 164.592 52.485 161.875 55.2628L167.594 60.8572C168.476 59.955 169.829 59.3 172.174 59.3V51.3ZM161.875 55.2628C159.08 58.1203 158.034 62.0652 158.034 66.34H166.034C166.034 63.2548 166.789 61.6797 167.594 60.8572L161.875 55.2628ZM158.034 66.34C158.034 67.8544 158.099 69.3517 158.23 70.8316L166.199 70.1284C166.089 68.8883 166.034 67.6256 166.034 66.34H158.034ZM158.242 70.9474C158.407 72.3547 158.594 73.7249 158.802 75.0575L166.706 73.8225C166.514 72.5951 166.341 71.3253 166.187 70.0126L158.242 70.9474ZM158.805 75.0769C159.006 76.3236 159.207 77.5505 159.409 78.7576L167.3 77.4424C167.101 76.2495 166.902 75.0364 166.703 73.8031L158.805 75.0769ZM159.412 78.7796C159.601 79.8751 159.75 80.9009 159.861 81.8585L167.808 80.9415C167.678 79.8191 167.507 78.6449 167.296 77.4204L159.412 78.7796ZM159.881 82.0082C160.016 82.8846 160.074 83.6385 160.074 84.28H168.074C168.074 83.1615 167.973 81.9954 167.788 80.7918L159.881 82.0082ZM160.074 84.28C160.074 87.7758 159.254 89.6273 158.34 90.6004L164.169 96.0796C167.014 93.0527 168.074 88.8642 168.074 84.28H160.074ZM158.338 90.6023C157.564 91.4266 155.923 92.28 152.434 92.28V100.28C157.025 100.28 161.264 99.1734 164.171 96.0777L158.338 90.6023ZM215.78 93.46L214.295 97.1739L215.78 93.46ZM203.96 83.68L200.528 85.7335L200.532 85.7403L200.536 85.747L203.96 83.68ZM200.36 56.5L196.38 56.102L196.378 56.1266L196.376 56.1513L200.36 56.5ZM201.62 47.2L197.688 46.466L197.684 46.4914L197.679 46.5168L201.62 47.2ZM203.6 38.68L199.763 37.5513L199.758 37.57L199.752 37.5887L203.6 38.68ZM206.18 31.24L202.494 29.6878L202.487 29.704L202.48 29.7203L206.18 31.24ZM209.24 25.24L205.961 22.9496L205.905 23.03L205.853 23.1129L209.24 25.24ZM215.42 19.42L217.418 22.8857L217.44 22.8731L217.461 22.8602L215.42 19.42ZM230.9 19.84L228.171 22.7642L230.9 19.84ZM233.48 29.44L229.494 29.1078L229.487 29.1905L229.484 29.2735L233.48 29.44ZM233.3 32.38L229.313 32.061V32.061L233.3 32.38ZM233 35.38L229.029 34.9034L229.02 34.9755L229.014 35.0478L233 35.38ZM232.76 38.2L228.776 37.8535L228.768 37.9358L228.765 38.0184L232.76 38.2ZM232.88 45.82L228.907 46.2785L228.908 46.2875L228.909 46.2966L232.88 45.82ZM236.96 46.72L238.264 50.5015V50.5015L236.96 46.72ZM240.8 45.28L242.286 48.9939L242.413 48.9432L242.536 48.884L240.8 45.28ZM244.7 44.02L245.525 47.9342L245.562 47.9262L245.6 47.9176L244.7 44.02ZM262.94 46.66L260.927 50.1165L260.95 50.1295L260.972 50.1423L262.94 46.66ZM271.34 55.42L267.778 57.2391L267.786 57.2541L267.793 57.269L271.34 55.42ZM271.16 81.52L274.604 83.5549L274.609 83.5464L274.614 83.5379L271.16 81.52ZM262.58 90.16L264.65 93.5833L264.663 93.575L264.677 93.5666L262.58 90.16ZM249.98 95.02L249.127 91.1122L249.12 91.1137L249.98 95.02ZM241.46 80.74L240.094 76.9808H240.093L241.46 80.74ZM247.82 75.28L244.285 73.4084L244.275 73.4283L244.265 73.4482L247.82 75.28ZM247.4 64.54L243.942 66.5505V66.5505L247.4 64.54ZM243.32 60.58L241.371 64.0728L241.402 64.0902L241.434 64.1071L243.32 60.58ZM232.04 60.46L233.975 63.961L233.991 63.9525L234.006 63.9439L232.04 60.46ZM228.44 64.06L224.957 62.0947L224.937 62.129L224.919 62.1636L228.44 64.06ZM228.14 75.88L224.372 77.22L224.385 77.257L224.399 77.2936L228.14 75.88ZM231.44 80.02L233.576 76.638V76.638L231.44 80.02ZM234.86 92.58C227.685 92.58 221.862 91.5844 217.266 89.7461L214.295 97.1739C220.099 99.4956 226.996 100.58 234.86 100.58V92.58ZM217.266 89.7461C212.806 87.962 209.578 85.2468 207.385 81.613L200.536 85.747C203.703 90.9932 208.355 94.798 214.295 97.1739L217.266 89.7461ZM207.393 81.6265C205.198 77.9564 203.94 72.9148 203.94 66.22H195.94C195.94 73.8452 197.363 80.4436 200.528 85.7335L207.393 81.6265ZM203.94 66.22C203.94 63.0539 204.076 59.9303 204.345 56.8487L196.376 56.1513C196.085 59.4697 195.94 62.8261 195.94 66.22H203.94ZM204.341 56.898C204.652 53.7882 205.059 50.7835 205.562 47.8831L197.679 46.5168C197.142 49.6165 196.709 52.8118 196.38 56.102L204.341 56.898ZM205.553 47.934C206.092 45.0431 206.725 42.323 207.449 39.7713L199.752 37.5887C198.956 40.397 198.269 43.3569 197.688 46.466L205.553 47.934ZM207.438 39.8087C208.205 37.1995 209.021 34.8524 209.881 32.7597L202.48 29.7203C201.5 32.1076 200.596 34.7204 199.763 37.5513L207.438 39.8087ZM209.867 32.7922C210.76 30.6703 211.685 28.8694 212.628 27.3671L205.853 23.1129C204.636 25.0506 203.52 27.2497 202.494 29.6878L209.867 32.7922ZM212.52 27.5304C213.987 25.4294 215.628 23.9171 217.418 22.8857L213.423 15.9543C210.493 17.6428 208.014 20.0106 205.961 22.9496L212.52 27.5304ZM217.461 22.8602C219.181 21.8398 221.072 21.32 223.22 21.32V13.32C219.689 13.32 216.38 14.2002 213.38 15.9798L217.461 22.8602ZM223.22 21.32C225.887 21.32 227.338 21.9869 228.171 22.7642L233.63 16.9158C230.863 14.3331 227.194 13.32 223.22 13.32V21.32ZM228.171 22.7642C229.022 23.5582 229.6 24.7035 229.6 26.68H237.6C237.6 22.8965 236.379 19.4818 233.63 16.9158L228.171 22.7642ZM229.6 26.68C229.6 27.4393 229.566 28.2481 229.494 29.1078L237.467 29.7722C237.555 28.7119 237.6 27.6807 237.6 26.68H229.6ZM229.484 29.2735C229.446 30.1804 229.389 31.1096 229.313 32.061L237.288 32.699C237.372 31.6504 237.435 30.6196 237.477 29.6065L229.484 29.2735ZM229.313 32.061C229.237 33.0082 229.143 33.9556 229.029 34.9034L236.972 35.8566C237.098 34.8044 237.204 33.7518 237.288 32.699L229.313 32.061ZM229.014 35.0478C228.935 36.0032 228.855 36.9385 228.776 37.8535L236.745 38.5465C236.826 37.6215 236.906 36.6768 236.987 35.7122L229.014 35.0478ZM228.765 38.0184C228.722 38.9529 228.7 39.8537 228.7 40.72H236.7C236.7 39.9863 236.719 39.2071 236.756 38.3816L228.765 38.0184ZM228.7 40.72C228.7 43.092 228.758 44.9914 228.907 46.2785L236.854 45.3615C236.763 44.5686 236.7 43.068 236.7 40.72H228.7ZM228.909 46.2966C229.015 47.1809 229.31 48.4307 230.223 49.5178C231.277 50.7725 232.736 51.32 234.14 51.32V43.32C234.427 43.32 234.826 43.3713 235.263 43.5631C235.711 43.7596 236.078 44.0505 236.348 44.3722C236.841 44.9593 236.866 45.4591 236.852 45.3434L228.909 46.2966ZM234.14 51.32C235.509 51.32 236.937 50.9593 238.264 50.5015L235.657 42.9385C235.191 43.099 234.827 43.1993 234.553 43.2576C234.418 43.2863 234.316 43.3025 234.243 43.3112C234.17 43.3201 234.138 43.32 234.14 43.32V51.32ZM238.264 50.5015C239.497 50.0763 240.839 49.5727 242.286 48.9939L239.315 41.5661C237.962 42.1073 236.744 42.5637 235.657 42.9385L238.264 50.5015ZM242.536 48.884C243.255 48.5378 244.232 48.2063 245.525 47.9342L243.876 40.1058C242.129 40.4737 240.506 40.9822 239.065 41.676L242.536 48.884ZM245.6 47.9176C246.831 47.6334 248.206 47.48 249.74 47.48V39.48C247.675 39.48 245.69 39.6866 243.801 40.1224L245.6 47.9176ZM249.74 47.48C254.352 47.48 258.022 48.4245 260.927 50.1165L264.954 43.2035C260.579 40.6555 255.449 39.48 249.74 39.48V47.48ZM260.972 50.1423C263.97 51.8367 266.215 54.1788 267.778 57.2391L274.903 53.6009C272.626 49.1412 269.271 45.6433 264.909 43.1777L260.972 50.1423ZM267.793 57.269C269.405 60.3597 270.28 64.1029 270.28 68.62H278.28C278.28 63.0571 277.196 58.0003 274.887 53.571L267.793 57.269ZM270.28 68.62C270.28 73.1079 269.357 76.6771 267.707 79.5021L274.614 83.5379C277.124 79.2429 278.28 74.2121 278.28 68.62H270.28ZM267.717 79.4851C265.983 82.4194 263.596 84.8383 260.484 86.7534L264.677 93.5666C268.845 91.0017 272.178 87.6606 274.604 83.5549L267.717 79.4851ZM260.511 86.7367C257.297 88.6792 253.519 90.1525 249.127 91.1122L250.834 98.9278C255.962 97.8075 260.583 96.0408 264.65 93.5833L260.511 86.7367ZM249.12 91.1137C244.711 92.0851 239.962 92.58 234.86 92.58V100.58C240.479 100.58 245.81 100.035 250.841 98.9263L249.12 91.1137ZM237.56 85.46C239.35 85.46 241.112 85.123 242.827 84.4992L240.093 76.9808C239.169 77.317 238.331 77.46 237.56 77.46V85.46ZM242.827 84.4992C244.587 83.8594 246.201 82.9291 247.659 81.7309L242.582 75.5491C241.8 76.1909 240.974 76.6606 240.094 76.9808L242.827 84.4992ZM247.659 81.7309C249.211 80.4563 250.453 78.9043 251.376 77.1118L244.265 73.4482C243.828 74.2957 243.27 74.9837 242.582 75.5491L247.659 81.7309ZM251.356 77.1516C252.415 75.1497 252.9 72.9544 252.9 70.66H244.9C244.9 71.8056 244.666 72.6902 244.285 73.4084L251.356 77.1516ZM252.9 70.66C252.9 67.7259 252.274 64.965 250.858 62.5295L243.942 66.5505C244.526 67.555 244.9 68.8741 244.9 70.66H252.9ZM250.859 62.5295C249.493 60.1815 247.595 58.3302 245.207 57.0529L241.434 64.1071C242.486 64.6698 243.308 65.4585 243.942 66.5505L250.859 62.5295ZM245.27 57.0872C242.876 55.7512 240.208 55.14 237.38 55.14V63.14C239.033 63.14 240.325 63.4888 241.371 64.0728L245.27 57.0872ZM237.38 55.14C234.774 55.14 232.303 55.7196 230.075 56.9761L234.006 63.9439C234.898 63.4404 235.987 63.14 237.38 63.14V55.14ZM230.106 56.959C227.916 58.1692 226.189 59.9105 224.957 62.0947L231.924 66.0253C232.452 65.0895 233.125 64.4308 233.975 63.961L230.106 56.959ZM224.919 62.1636C223.714 64.4002 223.18 66.8934 223.18 69.52H231.18C231.18 67.9866 231.487 66.8398 231.962 65.9564L224.919 62.1636ZM223.18 69.52C223.18 72.2961 223.543 74.8893 224.372 77.22L231.909 74.54C231.458 73.2707 231.18 71.6239 231.18 69.52H223.18ZM224.399 77.2936C225.363 79.8459 226.996 81.9442 229.305 83.402L233.576 76.638C232.845 76.1758 232.278 75.5141 231.882 74.4664L224.399 77.2936ZM229.305 83.402C231.68 84.9025 234.55 85.46 237.56 85.46V77.46C235.451 77.46 234.241 77.0575 233.576 76.638L229.305 83.402ZM290.266 117.04L287.605 120.026L287.621 120.04L287.637 120.054L290.266 117.04ZM289.726 104.8L286.725 102.156L286.709 102.173L286.694 102.191L289.726 104.8ZM296.146 100.78L297.491 104.547L297.684 104.478L297.869 104.39L296.146 100.78ZM301.786 97.96L299.969 94.3964L299.955 94.4037L299.941 94.4111L301.786 97.96ZM307.486 94.66L309.687 97.9998L307.486 94.66ZM311.746 91.24L308.868 88.4616L308.867 88.4635L311.746 91.24ZM311.506 85.06L308.984 88.1645L309.013 88.1886L309.044 88.2121L311.506 85.06ZM304.666 81.52L303.084 85.1936L303.128 85.2128L303.173 85.2308L304.666 81.52ZM297.166 77.62L295.041 81.0088L295.054 81.0168L295.067 81.0247L297.166 77.62ZM290.566 72.76L287.89 75.7332L287.921 75.7612L287.953 75.7886L290.566 72.76ZM285.346 67L282.108 69.3489L285.346 67ZM281.866 60.64L285.603 59.2132V59.2132L281.866 60.64ZM282.226 47.62L278.771 45.6045L278.764 45.616L278.758 45.6275L282.226 47.62ZM286.786 43.06L284.771 39.6049L286.786 43.06ZM302.386 43.48L300.395 46.9495L300.417 46.9618L300.439 46.9739L302.386 43.48ZM308.806 50.08L312.411 48.3461L312.328 48.1731L312.228 48.0088L308.806 50.08ZM312.946 58.9L309.306 60.5592L309.316 60.5813L309.327 60.6032L312.946 58.9ZM317.026 65.8L313.851 68.2323L313.86 68.2441L313.869 68.2558L317.026 65.8ZM319.726 68.56L317.243 71.6962L317.315 71.7528L317.389 71.8061L319.726 68.56ZM325.426 68.26L328.194 71.148L328.224 71.1185L328.255 71.0884L325.426 68.26ZM327.646 64.96L324.092 63.1239L324.019 63.2658L323.957 63.4131L327.646 64.96ZM331.306 56.62L327.583 55.1588L327.574 55.1794L327.567 55.2L331.306 56.62ZM335.086 48.04L331.691 45.9258L331.592 46.0842L331.508 46.2511L335.086 48.04ZM340.006 42.76L342.331 46.0149L340.006 42.76ZM356.746 44.02L353.628 46.5256L353.639 46.5393L353.65 46.5529L356.746 44.02ZM358.246 60.1L354.413 58.9559L354.408 58.9746L354.402 58.9934L358.246 60.1ZM355.126 68.44L351.481 66.7923L351.481 66.7923L355.126 68.44ZM350.686 77.08L347.222 75.0797L350.686 77.08ZM345.526 85.24L342.237 82.9631L342.23 82.9739L345.526 85.24ZM340.426 92.08L337.333 89.5437L337.326 89.5526L340.426 92.08ZM330.886 102.52L328.092 99.6577L328.083 99.6662L328.075 99.6747L330.886 102.52ZM320.386 111.28L318.109 107.991L318.097 108L318.085 108.008L320.386 111.28ZM309.166 117.28L307.762 113.535L307.738 113.544L307.714 113.553L309.166 117.28ZM297.646 115.5C295.352 115.5 293.896 114.899 292.896 114.026L287.637 120.054C290.396 122.461 293.86 123.5 297.646 123.5V115.5ZM292.928 114.054C291.896 113.135 291.506 112.203 291.506 111.04H283.506C283.506 114.597 284.956 117.665 287.605 120.026L292.928 114.054ZM291.506 111.04C291.506 109.479 291.952 108.346 292.758 107.409L286.694 102.191C284.54 104.694 283.506 107.721 283.506 111.04H291.506ZM292.728 107.444C293.636 106.412 295.128 105.391 297.491 104.547L294.801 97.013C291.564 98.1689 288.776 99.8276 286.725 102.156L292.728 107.444ZM297.869 104.39C299.676 103.528 301.597 102.567 303.632 101.509L299.941 94.4111C297.975 95.4332 296.136 96.3525 294.423 97.1701L297.869 104.39ZM303.603 101.524C305.764 100.422 307.793 99.2481 309.687 97.9998L305.285 91.3202C303.659 92.3919 301.888 93.4181 299.969 94.3964L303.603 101.524ZM309.687 97.9998C311.613 96.7307 313.283 95.4084 314.625 94.0165L308.867 88.4635C308.049 89.3116 306.879 90.2693 305.285 91.3202L309.687 97.9998ZM314.624 94.0184C316.114 92.4747 317.426 90.4094 317.426 87.88H309.426C309.426 87.707 309.475 87.648 309.428 87.7411C309.374 87.8505 309.223 88.0945 308.868 88.4616L314.624 94.0184ZM317.426 87.88C317.426 85.0432 315.449 83.0644 313.969 81.9079L309.044 88.2121C309.254 88.3765 309.402 88.5109 309.503 88.6125C309.605 88.7151 309.641 88.7676 309.64 88.7662C309.639 88.765 309.426 88.4481 309.426 87.88H317.426ZM314.028 81.9555C312.25 80.5104 309.487 79.1482 306.159 77.8092L303.173 85.2308C306.406 86.5318 308.202 87.5296 308.984 88.1645L314.028 81.9555ZM306.249 77.8464C303.827 76.803 301.499 75.5928 299.266 74.2153L295.067 81.0247C297.633 82.6072 300.306 83.997 303.084 85.1936L306.249 77.8464ZM299.291 74.2312C297.097 72.8551 295.061 71.3548 293.179 69.7314L287.953 75.7886C290.151 77.6852 292.515 79.4249 295.041 81.0088L299.291 74.2312ZM293.242 69.7868C291.437 68.162 289.888 66.4491 288.584 64.6511L282.108 69.3489C283.764 71.6309 285.696 73.758 287.89 75.7332L293.242 69.7868ZM288.584 64.6511C287.296 62.8754 286.309 61.0631 285.603 59.2132L278.129 62.0668C279.103 64.6169 280.437 67.0446 282.108 69.3489L288.584 64.6511ZM285.603 59.2132C284.931 57.4536 284.606 55.6963 284.606 53.92H276.606C276.606 56.7037 277.121 59.4264 278.129 62.0668L285.603 59.2132ZM284.606 53.92C284.606 52.2485 284.987 50.8437 285.695 49.6125L278.758 45.6275C277.305 48.1563 276.606 50.9515 276.606 53.92H284.606ZM285.681 49.6355C286.454 48.3115 287.478 47.2874 288.802 46.5151L284.771 39.6049C282.255 41.0726 280.239 43.0885 278.771 45.6045L285.681 49.6355ZM288.802 46.5151C290.041 45.792 291.53 45.38 293.386 45.38V37.38C290.282 37.38 287.371 38.088 284.771 39.6049L288.802 46.5151ZM293.386 45.38C296.43 45.38 298.702 45.9778 300.395 46.9495L304.377 40.0105C301.19 38.1822 297.462 37.38 293.386 37.38V45.38ZM300.439 46.9739C302.128 47.9157 303.808 49.5468 305.384 52.1512L312.228 48.0088C310.124 44.5332 307.524 41.7643 304.334 39.9861L300.439 46.9739ZM305.201 51.8139C306.711 54.9532 308.08 57.8681 309.306 60.5592L316.586 57.2408C315.333 54.4919 313.941 51.5268 312.411 48.3461L305.201 51.8139ZM309.327 60.6032C310.698 63.5159 312.198 66.0748 313.851 68.2323L320.202 63.3677C318.974 61.7652 317.755 59.7241 316.565 57.1968L309.327 60.6032ZM313.869 68.2558C314.883 69.5596 316.005 70.7155 317.243 71.6962L322.209 65.4238C321.528 64.8845 320.849 64.2004 320.184 63.3442L313.869 68.2558ZM317.389 71.8061C318.636 72.704 320.337 73.64 322.306 73.64V65.64C322.608 65.64 322.744 65.7131 322.666 65.6802C322.589 65.6481 322.391 65.5495 322.063 65.3139L317.389 71.8061ZM322.306 73.64C324.647 73.64 326.638 72.6391 328.194 71.148L322.658 65.372C322.458 65.5638 322.338 65.6237 322.308 65.6369C322.293 65.6437 322.29 65.6431 322.298 65.6415C322.306 65.6398 322.31 65.64 322.306 65.64V73.64ZM328.255 71.0884C329.578 69.7648 330.612 68.2306 331.335 66.5069L323.957 63.4131C323.64 64.1694 323.194 64.8352 322.598 65.4316L328.255 71.0884ZM331.2 66.7961C332.524 64.2325 333.804 61.3086 335.046 58.04L327.567 55.2C326.408 58.2514 325.248 60.8875 324.092 63.1239L331.2 66.7961ZM335.03 58.0812C336.234 55.0127 337.446 52.2644 338.664 49.8289L331.508 46.2511C330.166 48.9356 328.858 51.9073 327.583 55.1588L335.03 58.0812ZM338.482 50.1542C339.534 48.4644 340.815 47.0976 342.331 46.0149L337.681 39.5051C335.277 41.2224 333.278 43.3756 331.691 45.9258L338.482 50.1542ZM342.331 46.0149C343.498 45.1817 345.046 44.66 347.206 44.66V36.66C343.686 36.66 340.435 37.5383 337.681 39.5051L342.331 46.0149ZM347.206 44.66C351.266 44.66 352.942 45.6724 353.628 46.5256L359.864 41.5144C356.95 37.8876 352.267 36.66 347.206 36.66V44.66ZM353.65 46.5529C354.718 47.8578 355.446 49.7997 355.446 52.78H363.446C363.446 48.4803 362.374 44.5822 359.842 41.487L353.65 46.5529ZM355.446 52.78C355.446 54.5041 355.131 56.5517 354.413 58.9559L362.079 61.2441C362.961 58.2883 363.446 55.4559 363.446 52.78H355.446ZM354.402 58.9934C353.703 61.4211 352.735 64.0196 351.481 66.7923L358.771 70.0877C360.158 67.0204 361.269 64.0589 362.09 61.2066L354.402 58.9934ZM351.481 66.7923C350.217 69.5891 348.798 72.3515 347.222 75.0797L354.15 79.0803C355.855 76.1285 357.395 73.1309 358.771 70.0877L351.481 66.7923ZM347.222 75.0797C345.635 77.8287 343.973 80.4562 342.237 82.9632L348.815 87.5168C350.679 84.8238 352.457 82.0114 354.15 79.0803L347.222 75.0797ZM342.23 82.9739C340.522 85.4588 338.889 87.6461 337.333 89.5437L343.519 94.6163C345.243 92.5139 347.011 90.1412 348.822 87.5061L342.23 82.9739ZM337.326 89.5526C334.42 93.1165 331.342 96.4846 328.092 99.6577L333.68 105.382C337.15 101.995 340.432 98.4035 343.526 94.6074L337.326 89.5526ZM328.075 99.6747C324.869 102.842 321.546 105.612 318.109 107.991L322.663 114.569C326.506 111.908 330.183 108.838 333.698 105.365L328.075 99.6747ZM318.085 108.008C314.699 110.389 311.258 112.223 307.762 113.535L310.571 121.025C314.754 119.457 318.793 117.291 322.687 114.552L318.085 108.008ZM307.714 113.553C304.353 114.862 301.004 115.5 297.646 115.5V123.5C302.048 123.5 306.379 122.658 310.618 121.007L307.714 113.553Z" fill="#6F2D39"/>
</svg>
